{
  "asset": {
    "version": "2.0",
    "generator": "THREE.GLTFExporter r174"
  },
  "scenes": [
    {
      "name": "AuxScene",
      "nodes": [
        6
      ]
    }
  ],
  "scene": 0,
  "nodes": [
    {
      "translation": [
        -12.000128494255478,
        -8.830087304115295,
        -2.5
      ],
      "extras": {
        "isHole": false
      },
      "mesh": 0
    },
    {
      "children": [
        0
      ]
    },
    {
      "rotation": [
        0,
        0.3826834323650898,
        0,
        0.9238795325112867
      ],
      "scale": [
        4.166666666666667,
        -4.166666666666667,
        4.166666666666667
      ],
      "children": [
        1
      ]
    },
    {
      "children": [
        2
      ]
    },
    {
      "translation": [
        0.00003233907998634322,
        12.488322456677754,
        -0.000032690303719107305
      ],
      "children": [
        3
      ]
    },
    {
      "children": [
        4
      ]
    },
    {
      "children": [
        5
      ]
    }
  ],
  "bufferViews": [
    {
      "buffer": 0,
      "byteOffset": 0,
      "byteLength": 96192,
      "target": 34962,
      "byteStride": 12
    },
    {
      "buffer": 0,
      "byteOffset": 96192,
      "byteLength": 64128,
      "target": 34962,
      "byteStride": 8
    },
    {
      "buffer": 0,
      "byteOffset": 160320,
      "byteLength": 96192,
      "target": 34962,
      "byteStride": 12
    }
  ],
  "buffers": [
    {
      "byteLength": 256512,
      "uri": "data:application/octet-stream;base64,"
    }
  ],
  "accessors": [
    {
      "bufferView": 0,
      "componentType": 5126,
      "count": 8016,
      "max": [
        24.00009536743164,
        20.6552677154541,
        5
      ],
      "min": [
        0.0002656250144354999,
        3.0012168884277344,
        0
      ],
      "type": "VEC3"
    },
    {
      "bufferView": 1,
      "componentType": 5126,
      "count": 8016,
      "max": [
        24.00009536743164,
        20.6552677154541
      ],
      "min": [
        0.0002656250144354999,
        -4
      ],
      "type": "VEC2"
    },
    {
      "bufferView": 2,
      "componentType": 5126,
      "count": 8016,
      "max": [
        1,
        0.9999865889549255,
        1
      ],
      "min": [
        -1,
        -1,
        -1
      ],
      "type": "VEC3"
    }
  ],
  "materials": [
    {
      "pbrMetallicRoughness": {
        "baseColorFactor": [
          0.07421356837213867,
          0.14702726648767014,
          0.9911020971136257,
          1
        ],
        "metallicFactor": 0.5,
        "roughnessFactor": 1
      },
      "extras": {
        "isHole": false
      }
    }
  ],
  "meshes": [
    {
      "primitives": [
        {
          "mode": 4,
          "attributes": {
            "POSITION": 0,
            "TEXCOORD_0": 1,
            "NORMAL": 2
          },
          "material": 0
        }
      ]
    }
  ]
}