{"scene":0,"asset":{"generator":"ImageToStl.com","version":"2.0"},"scenes":[{"name":"Scene","nodes":[0]}],"nodes":[{"name":"Node0","children":[1]},{"name":"Scene","children":[2]},{"name":"tripo_node_45b94bfc-2036-4f76-8389-d888a6e9cc32","mesh":0}],"materials":[{"name":"tripo_mat_45b94bfc-2036-4f76-8389-d888a6e9cc320","pbrMetallicRoughness":{"baseColorFactor":[1.0,1.0,1.0,1.0],"metallicFactor":0.0,"roughnessFactor":1.0,"baseColorTexture":{"index":0}},"doubleSided":true,"normalTexture":{"index":2}}],"images":[{"bufferView":0,"name":"","mimeType":"image/jpeg"},{"bufferView":1,"name":"","mimeType":"image/png"},{"bufferView":2,"name":"","mimeType":"image/jpeg"}],"textures":[{"sampler":0,"source":0},{"sampler":0,"source":1},{"sampler":0,"source":2}],"samplers":[{"magFilter":9729,"minFilter":9987}],"meshes":[{"name":"Mesh0","primitives":[{"indices":2,"material":0,"attributes":{"POSITION":0,"TEXCOORD_0":1}}]}],"accessors":[{"bufferView":3,"componentType":5126,"count":3746,"type":"VEC3","min":[-0.0133479955,-0.48733762,-0.49386153],"max":[0.013374303,0.48108804,0.49398237]},{"bufferView":4,"componentType":5126,"count":3746,"type":"VEC2"},{"bufferView":5,"componentType":5123,"count":54981,"type":"SCALAR"}],"bufferViews":[{"buffer":0,"byteLength":392148,"byteOffset":0},{"buffer":0,"byteLength":541192,"byteOffset":392148},{"buffer":0,"byteLength":357137,"byteOffset":933340},{"target":34962,"buffer":0,"byteLength":44952,"byteOffset":1290480},{"target":34962,"buffer":0,"byteLength":29968,"byteOffset":1335432},{"target":34963,"buffer":0,"byteLength":109962,"byteOffset":1365400}],"buffers":[{"byteLength":1475364,"uri":"data:application/octet-stream;base64,"}]}