{
  "asset": {
    "version": "2.0",
    "generator": "THREE.GLTFExporter r174"
  },
  "scenes": [
    {
      "name": "AuxScene",
      "nodes": [
        7
      ]
    }
  ],
  "scene": 0,
  "nodes": [
    {
      "translation": [
        -12,
        -11.520500183105469,
        -2.5
      ],
      "extras": {
        "isHole": false
      },
      "mesh": 0
    },
    {
      "translation": [
        -12,
        -11.520500183105469,
        -2.5
      ],
      "extras": {
        "isHole": false
      },
      "mesh": 1
    },
    {
      "children": [
        0,
        1
      ]
    },
    {
      "rotation": [
        0,
        0.3826834323650898,
        0,
        0.9238795325112867
      ],
      "scale": [
        4.166666666666667,
        -4.166666666666667,
        4.166666666666667
      ],
      "children": [
        2
      ]
    },
    {
      "children": [
        3
      ]
    },
    {
      "translation": [
        0.012872196322316398,
        2.041510500324275,
        -0.012872547546052715
      ],
      "children": [
        4
      ]
    },
    {
      "children": [
        5
      ]
    },
    {
      "children": [
        6
      ]
    }
  ],
  "bufferViews": [
    {
      "buffer": 0,
      "byteOffset": 0,
      "byteLength": 8928,
      "target": 34962,
      "byteStride": 12
    },
    {
      "buffer": 0,
      "byteOffset": 8928,
      "byteLength": 5952,
      "target": 34962,
      "byteStride": 8
    },
    {
      "buffer": 0,
      "byteOffset": 14880,
      "byteLength": 8928,
      "target": 34962,
      "byteStride": 12
    },
    {
      "buffer": 0,
      "byteOffset": 23808,
      "byteLength": 10800,
      "target": 34962,
      "byteStride": 12
    },
    {
      "buffer": 0,
      "byteOffset": 34608,
      "byteLength": 7200,
      "target": 34962,
      "byteStride": 8
    },
    {
      "buffer": 0,
      "byteOffset": 41808,
      "byteLength": 10800,
      "target": 34962,
      "byteStride": 12
    }
  ],
  "buffers": [
    {
      "byteLength": 52608,
      "uri": "data:application/octet-stream;base64,"
    }
  ],
  "accessors": [
    {
      "bufferView": 0,
      "componentType": 5126,
      "count": 744,
      "max": [
        24,
        21.144264221191406,
        5
      ],
      "min": [
        7.114999771118164,
        0.5,
        0
      ],
      "type": "VEC3"
    },
    {
      "bufferView": 1,
      "componentType": 5126,
      "count": 744,
      "max": [
        24,
        21.144264221191406
      ],
      "min": [
        0.5,
        -4
      ],
      "type": "VEC2"
    },
    {
      "bufferView": 2,
      "componentType": 5126,
      "count": 744,
      "max": [
        1,
        0.9999365210533142,
        1
      ],
      "min": [
        -0.9994467496871948,
        -0.9994167685508728,
        -1
      ],
      "type": "VEC3"
    },
    {
      "bufferView": 3,
      "componentType": 5126,
      "count": 900,
      "max": [
        17.565000534057617,
        23.541000366210938,
        5
      ],
      "min": [
        4.440892098500626e-16,
        3.1972506046295166,
        0
      ],
      "type": "VEC3"
    },
    {
      "bufferView": 4,
      "componentType": 5126,
      "count": 900,
      "max": [
        23.541000366210938,
        23.541000366210938
      ],
      "min": [
        4.440892098500626e-16,
        -4
      ],
      "type": "VEC2"
    },
    {
      "bufferView": 5,
      "componentType": 5126,
      "count": 900,
      "max": [
        1,
        0.9999719262123108,
        1
      ],
      "min": [
        -0.9998654127120972,
        -0.9998819828033447,
        -1
      ],
      "type": "VEC3"
    }
  ],
  "materials": [
    {
      "pbrMetallicRoughness": {
        "baseColorFactor": [
          0,
          0.10224173307914941,
          0.8307698767709715,
          1
        ],
        "metallicFactor": 0.9,
        "roughnessFactor": 0.2
      },
      "extras": {
        "isHole": false
      }
    }
  ],
  "meshes": [
    {
      "primitives": [
        {
          "mode": 4,
          "attributes": {
            "POSITION": 0,
            "TEXCOORD_0": 1,
            "NORMAL": 2
          },
          "material": 0
        }
      ]
    },
    {
      "primitives": [
        {
          "mode": 4,
          "attributes": {
            "POSITION": 3,
            "TEXCOORD_0": 4,
            "NORMAL": 5
          },
          "material": 0
        }
      ]
    }
  ]
}